<svg xmlns="http://www.w3.org/2000/svg" width="100" height="88" viewBox="0 0 100 88"><defs><filter id="c0cia" width="120" height="108" x="-10" y="-10" filterUnits="userSpaceOnUse"><feOffset in="SourceGraphic" result="FeOffset1041Out"/><feGaussianBlur in="FeOffset1041Out" result="FeGaussianBlur1042Out" stdDeviation="3.2 3.2"/></filter></defs><g><g><g filter="url(#c0cia)"><path fill="none" d="M65.509 80H34.49c-2.141 0-3.877-1.79-3.877-4V44.28l-5.04 4a3.778 3.778 0 0 1-5.467 0L9.134 37.16c-1.512-1.56-1.512-4.08 0-5.64L31.932 8h6.436c0 4.4 5.196 8 11.632 8s11.632-3.6 11.632-8h6.436l22.798 23.52c1.512 1.56 1.512 4.08 0 5.64L79.893 48.48a3.847 3.847 0 0 1-5.467 0l-5.04-4V76c0 2.21-1.736 4-3.877 4"/></g><path fill="#5bc8af" d="M65.509 80H34.49c-2.141 0-3.877-1.79-3.877-4V44.28l-5.04 4a3.778 3.778 0 0 1-5.467 0L9.134 37.16c-1.512-1.56-1.512-4.08 0-5.64L31.932 8h6.436c0 4.4 5.196 8 11.632 8s11.632-3.6 11.632-8h6.436l22.798 23.52c1.512 1.56 1.512 4.08 0 5.64L79.893 48.48a3.847 3.847 0 0 1-5.467 0l-5.04-4V76c0 2.21-1.736 4-3.877 4"/></g></g></svg>