<svg xmlns="http://www.w3.org/2000/svg" width="16" height="16" viewBox="0 0 16 16"><g><g opacity=".54"><path d="M5.58 10.89l4.742-4.74c1.444 1.561 2.117 3.434 2.759 5.252.437 1.236.86 2.42 1.502 3.427zM1.172 1.417c1.006.642 2.19 1.065 3.427 1.502 1.818.642 3.69 1.315 5.253 2.76l-4.741 4.74zm2.496 12.445L3 14.529V13H1.471l.667-.667h1.195c.185 0 .334.15.334.334zm12.235 1.569c-.737-.737-.935-2.176-1.164-3.843-.307-2.243-.693-5.011-2.616-7.238l1.016-1.016h1.529a.333.333 0 0 0 .312-.217l1-2.666a.333.333 0 0 0-.43-.43l-2.666 1a.333.333 0 0 0-.216.313v1.528L11.65 3.878C9.435 1.957 6.66 1.57 4.412 1.262 2.745 1.032 1.306.835.57.098a.333.333 0 0 0-.54.369l4.575 10.458-.409.408H2.333a.333.333 0 0 0-.235.098l-2 2A.334.334 0 0 0 .333 14H2v1.667a.333.333 0 0 0 .569.235l2-2a.333.333 0 0 0 .098-.235v-1.862l.408-.408 10.459 4.574a.332.332 0 0 0 .368-.54z"/></g></g></svg>